<svg xmlns="http://www.w3.org/2000/svg" viewBox="0 0 32 32">
  <!-- Black background -->
  <rect width="32" height="32" fill="#0f0f0f"/>

  <!-- Chip pins - all sides -->
  <!-- Top pins -->
  <rect x="8" y="2" width="2" height="4" fill="#e6fb53"/>
  <rect x="12" y="2" width="2" height="4" fill="#e6fb53"/>
  <rect x="18" y="2" width="2" height="4" fill="#e6fb53"/>
  <rect x="22" y="2" width="2" height="4" fill="#e6fb53"/>

  <!-- Bottom pins -->
  <rect x="8" y="26" width="2" height="4" fill="#e6fb53"/>
  <rect x="12" y="26" width="2" height="4" fill="#e6fb53"/>
  <rect x="18" y="26" width="2" height="4" fill="#e6fb53"/>
  <rect x="22" y="26" width="2" height="4" fill="#e6fb53"/>

  <!-- Left pins -->
  <rect x="2" y="8" width="4" height="2" fill="#e6fb53"/>
  <rect x="2" y="12" width="4" height="2" fill="#e6fb53"/>
  <rect x="2" y="18" width="4" height="2" fill="#e6fb53"/>
  <rect x="2" y="22" width="4" height="2" fill="#e6fb53"/>

  <!-- Right pins -->
  <rect x="26" y="8" width="4" height="2" fill="#e6fb53"/>
  <rect x="26" y="12" width="4" height="2" fill="#e6fb53"/>
  <rect x="26" y="18" width="4" height="2" fill="#e6fb53"/>
  <rect x="26" y="22" width="4" height="2" fill="#e6fb53"/>

  <!-- Chip body -->
  <rect x="6" y="6" width="20" height="20" rx="2" fill="none" stroke="#e6fb53" stroke-width="2"/>
</svg>
